<?xml version="1.0" standalone="no"?>
<!DOCTYPE svg PUBLIC "-//W3C//DTD SVG 20010904//EN"
 "http://www.w3.org/TR/2001/REC-SVG-20010904/DTD/svg10.dtd">
<svg version="1.0" xmlns="http://www.w3.org/2000/svg"
 width="97.000000pt" height="86.000000pt" viewBox="0 0 97.000000 86.000000"
 preserveAspectRatio="xMidYMid meet">
<metadata>
Created by potrace 1.12, written by Peter Selinger 2001-2015
</metadata>
<g transform="translate(0.000000,86.000000) scale(0.100000,-0.100000)"
fill="#000000" stroke="none">
<path d="M274 671 c-53 -24 -83 -68 -91 -130 -9 -82 27 -143 171 -283 66 -65
123 -118 126 -118 3 0 60 53 126 118 170 166 203 240 152 342 -26 51 -89 90
-146 90 -34 0 -84 -21 -115 -48 -16 -14 -19 -13 -41 7 -45 43 -117 51 -182 22z
m126 -56 c16 -8 34 -24 40 -35 14 -27 66 -27 80 0 14 26 62 50 101 50 22 0 41
-10 65 -34 39 -39 44 -77 17 -134 -22 -47 -200 -232 -223 -232 -23 0 -201 185
-223 232 -27 57 -22 95 17 134 38 38 77 44 126 19z"/>
</g>
</svg>
