<?xml version="1.0" standalone="no"?>
<!DOCTYPE svg PUBLIC "-//W3C//DTD SVG 20010904//EN"
 "http://www.w3.org/TR/2001/REC-SVG-20010904/DTD/svg10.dtd">
<svg version="1.0" xmlns="http://www.w3.org/2000/svg"
 width="626.000000pt" height="598.000000pt" viewBox="0 0 626.000000 598.000000"
 preserveAspectRatio="xMidYMid meet">
<metadata>
Created by potrace 1.12, written by Peter Selinger 2001-2015
</metadata>
<g transform="translate(0.000000,598.000000) scale(0.100000,-0.100000)"
fill="#000000" stroke="none">
<path d="M2915 5489 c-607 -52 -1179 -326 -1610 -770 -357 -368 -587 -813
-680 -1316 -120 -650 21 -1337 386 -1881 731 -1090 2152 -1453 3314 -848 610
317 1082 893 1270 1548 256 888 23 1834 -615 2492 -544 561 -1290 841 -2065
775z m416 -489 c767 -77 1413 -551 1714 -1255 295 -692 185 -1496 -285 -2090
-350 -441 -859 -717 -1429 -775 -877 -88 -1737 423 -2089 1239 -338 784 -166
1679 437 2282 438 438 1049 659 1652 599z"/>
<path d="M2320 4104 c-83 -17 -192 -72 -258 -130 -114 -100 -195 -269 -196
-411 -1 -62 2 -75 22 -96 31 -33 64 -40 106 -23 44 18 54 39 65 125 42 331
428 472 664 243 64 -62 104 -142 117 -234 14 -97 24 -116 65 -134 45 -18 78
-10 110 28 30 35 32 78 10 183 -66 316 -384 518 -705 449z"/>
<path d="M3682 4100 c-106 -28 -187 -75 -267 -155 -81 -81 -127 -161 -155
-271 -28 -108 -26 -165 5 -202 32 -38 65 -46 110 -28 41 17 50 35 65 135 14
96 48 166 111 230 91 90 221 132 342 111 174 -32 308 -175 327 -349 9 -83 22
-109 66 -127 42 -17 75 -10 106 23 20 22 23 34 22 99 -3 192 -128 387 -313
488 -117 63 -283 81 -419 46z"/>
<path d="M1710 2927 c-50 -16 -104 -75 -120 -131 -12 -43 -11 -60 8 -154 54
-276 183 -535 368 -745 246 -277 600 -466 967 -516 101 -14 313 -14 414 0 593
81 1093 497 1283 1068 56 167 76 288 59 348 -33 120 -180 178 -286 113 -57
-34 -81 -79 -103 -189 -50 -247 -149 -432 -329 -612 -231 -231 -512 -349 -831
-349 -312 0 -590 114 -822 338 -174 168 -288 375 -337 615 -10 52 -26 107 -34
123 -44 84 -141 122 -237 91z"/>
</g>
</svg>
