<?xml version="1.0" standalone="no"?>
<!DOCTYPE svg PUBLIC "-//W3C//DTD SVG 20010904//EN"
 "http://www.w3.org/TR/2001/REC-SVG-20010904/DTD/svg10.dtd">
<svg version="1.0" xmlns="http://www.w3.org/2000/svg"
 width="139.000000pt" height="140.000000pt" viewBox="0 0 139.000000 140.000000"
 preserveAspectRatio="xMidYMid meet">
<metadata>
Created by potrace 1.12, written by Peter Selinger 2001-2015
</metadata>
<g transform="translate(0.000000,140.000000) scale(0.100000,-0.100000)"
fill="#000000" stroke="none">
<path d="M555 1168 c-72 -39 -176 -95 -232 -125 l-103 -54 0 -50 0 -49 476 0
475 0 -3 51 -3 50 -60 33 c-154 83 -401 211 -410 213 -5 0 -68 -30 -140 -69z"/>
<path d="M320 615 l0 -175 75 0 75 0 0 175 0 175 -75 0 -75 0 0 -175z"/>
<path d="M620 615 l0 -175 75 0 75 0 0 175 0 175 -75 0 -75 0 0 -175z"/>
<path d="M920 615 l0 -175 75 0 75 0 0 175 0 175 -75 0 -75 0 0 -175z"/>
<path d="M220 265 l0 -75 475 0 475 0 0 75 0 75 -475 0 -475 0 0 -75z"/>
</g>
</svg>
