<?xml version="1.0" standalone="no"?>
<!DOCTYPE svg PUBLIC "-//W3C//DTD SVG 20010904//EN"
 "http://www.w3.org/TR/2001/REC-SVG-20010904/DTD/svg10.dtd">
<svg version="1.0" xmlns="http://www.w3.org/2000/svg"
 width="22.000000pt" height="22.000000pt" viewBox="0 0 22.000000 22.000000"
 preserveAspectRatio="xMidYMid meet">
<metadata>
Created by potrace 1.12, written by Peter Selinger 2001-2015
</metadata>
<g transform="translate(0.000000,22.000000) scale(0.100000,-0.100000)"
fill="#000000" stroke="none">
<path d="M95 211 c-6 -5 -21 -11 -35 -13 -25 -3 -25 -4 -25 -98 l0 -95 80 0
80 0 0 95 0 94 -30 7 c-16 4 -37 9 -45 13 -9 4 -20 2 -25 -3z m24 -61 c30 0
41 4 41 15 0 8 5 15 10 15 6 0 10 -33 10 -80 l0 -80 -65 0 -65 0 0 83 c1 70 3
80 14 65 9 -12 27 -18 55 -18z"/>
</g>
</svg>
