<?xml version="1.0" standalone="no"?>
<!DOCTYPE svg PUBLIC "-//W3C//DTD SVG 20010904//EN"
 "http://www.w3.org/TR/2001/REC-SVG-20010904/DTD/svg10.dtd">
<svg version="1.0" xmlns="http://www.w3.org/2000/svg"
 width="176.000000pt" height="176.000000pt" viewBox="0 0 176.000000 176.000000"
 preserveAspectRatio="xMidYMid meet">
<metadata>
Created by potrace 1.12, written by Peter Selinger 2001-2015
</metadata>
<g transform="translate(0.000000,176.000000) scale(0.100000,-0.100000)"
fill="#000000" stroke="none">
<path d="M532 1360 c-95 -49 -172 -175 -172 -284 0 -51 -1 -53 -24 -49 -41 8
-132 -17 -181 -49 -130 -86 -188 -273 -127 -410 24 -55 92 -122 157 -156 l50
-27 434 -3 434 -3 -25 33 c-53 71 -72 136 -72 238 0 86 3 102 31 162 38 80
104 155 171 191 55 30 150 57 199 57 28 0 33 4 33 24 0 47 -39 147 -73 189
-53 65 -125 100 -219 105 -95 6 -146 -11 -209 -68 l-43 -40 -30 29 c-56 54
-111 75 -205 79 -73 3 -92 0 -129 -18z"/>
<path d="M1428 838 l-3 -123 -122 -3 -123 -3 0 -44 0 -44 123 -3 122 -3 3
-117 3 -118 44 0 44 0 3 118 3 117 118 3 117 3 0 44 0 45 -120 0 -120 0 0 125
0 125 -45 0 -44 0 -3 -122z"/>
</g>
</svg>
