<?xml version="1.0" encoding="utf-8"?>
<!-- Generator: Adobe Illustrator 16.0.0, SVG Export Plug-In . SVG Version: 6.00 Build 0)  -->
<!DOCTYPE svg PUBLIC "-//W3C//DTD SVG 1.1//EN" "http://www.w3.org/Graphics/SVG/1.1/DTD/svg11.dtd">
<svg version="1.1" id="Layer_1" xmlns="http://www.w3.org/2000/svg" xmlns:xlink="http://www.w3.org/1999/xlink" x="0px" y="0px"
	 width="512px" height="512px" viewBox="0 0 512 512" enable-background="new 0 0 512 512" xml:space="preserve">
<path d="M-612,320v96h96v-96H-612z M-529,403h-70v-70h70V403z"/>
<g>
	<g>
		<path fill="#020202" d="M6.644,273.594c-5.278-73.297,22.145-148.29,73.795-200.603c7.056-6.854,19.4-5.96,25.867,1.271
			c7.83,6.642,7.968,19.942,0.34,26.796C63.563,145.809,40.266,208.992,44.9,271.032c3.316,51.539,25.516,101.467,61.073,138.866
			c3.399,3.326,6.19,7.573,6.43,12.464c1.437,12.251-11.368,23.581-23.352,20.938c-4.302-0.745-7.885-3.51-10.75-6.669
			C36.379,392.848,10.632,334.068,6.644,273.594z"/>
		<path fill="#020202" d="M78.523,275.408c-6.108-56.155,14.591-114.465,54.717-154.204c7.093-6.209,18.691-5.435,25.066,1.464
			c7.7,6.292,8.565,18.976,1.583,26.106c-25.083,25.443-41.01,59.839-43.617,95.506c-3.593,43.313,12.841,87.567,43.359,118.407
			c7.518,7.112,6.661,20.358-1.336,26.76c-6.512,6.899-18.423,7.471-25.322,0.849C102.39,359.731,82.935,318.398,78.523,275.408z"/>
		<path fill="#020202" d="M149.443,267.108c-3.519-35.438,10.051-72.073,35.715-96.732c7.028-6.752,19.123-5.97,25.626,1.142
			c7.794,6.458,8.319,19.4,1.014,26.419c-14.269,13.9-23.287,33.153-24.374,53.087c-1.612,22.624,7.324,45.515,23.223,61.58
			c4.44,3.951,7.167,9.819,6.458,15.826c-0.978,13.946-19.594,23.628-30.768,14.021
			C165.297,323.052,152.262,295.499,149.443,267.108z"/>
		<path fill="#020202" d="M215.667,261.646c-3.832-22.836,15.025-46.013,38.182-46.75c22.707-2.118,44.253,17.926,43.755,40.715
			c0.71,20.487-16.286,39.473-36.662,41.27C239.552,299.801,218.134,283.072,215.667,261.646z"/>
	</g>
	<path fill="#020202" d="M505.356,238.407c5.277,73.296-22.146,148.289-73.795,200.602c-7.057,6.854-19.4,5.961-25.866-1.271
		c-7.83-6.642-7.969-19.942-0.341-26.797c43.082-44.75,66.379-107.934,61.745-169.973c-3.315-51.54-25.516-101.467-61.073-138.866
		c-3.399-3.326-6.19-7.573-6.43-12.464c-1.438-12.251,11.367-23.582,23.352-20.938c4.302,0.746,7.886,3.509,10.75,6.669
		C475.621,119.152,501.367,177.932,505.356,238.407z"/>
	<path fill="#020202" d="M433.477,236.592c6.108,56.155-14.591,114.464-54.717,154.203c-7.093,6.209-18.691,5.436-25.065-1.464
		c-7.701-6.292-8.566-18.976-1.584-26.106c25.083-25.442,41.011-59.839,43.617-95.506c3.593-43.314-12.841-87.567-43.359-118.407
		c-7.518-7.112-6.661-20.358,1.336-26.76c6.512-6.899,18.423-7.471,25.322-0.848C409.609,152.269,429.065,193.602,433.477,236.592z"
		/>
	<path fill="#020202" d="M362.557,244.892c3.519,35.437-10.05,72.073-35.715,96.732c-7.028,6.752-19.123,5.97-25.626-1.143
		c-7.794-6.457-8.319-19.399-1.014-26.419c14.269-13.9,23.287-33.153,24.374-53.087c1.612-22.624-7.323-45.515-23.223-61.58
		c-4.44-3.952-7.167-9.819-6.458-15.826c0.978-13.946,19.594-23.627,30.768-14.02C346.702,188.949,359.737,216.501,362.557,244.892z
		"/>
</g>
</svg>
