<?xml version="1.0" standalone="no"?>
<!DOCTYPE svg PUBLIC "-//W3C//DTD SVG 20010904//EN"
 "http://www.w3.org/TR/2001/REC-SVG-20010904/DTD/svg10.dtd">
<svg version="1.0" xmlns="http://www.w3.org/2000/svg"
 width="300.000000pt" height="217.000000pt" viewBox="0 0 300.000000 217.000000"
 preserveAspectRatio="xMidYMid meet">
<metadata>
Created by potrace 1.12, written by Peter Selinger 2001-2015
</metadata>
<g transform="translate(0.000000,217.000000) scale(0.100000,-0.100000)"
fill="#000000" stroke="none">
<path d="M1726 2146 c-70 -29 -133 -88 -167 -154 -34 -67 -34 -207 -1 -270 37
-69 87 -117 154 -147 253 -113 514 132 417 392 -61 161 -248 244 -403 179z"/>
<path d="M945 2132 c-115 -55 -179 -155 -179 -282 0 -170 120 -297 289 -308
243 -15 404 234 293 455 -71 142 -257 204 -403 135z"/>
<path d="M1409 1585 c-38 -38 -137 -93 -198 -111 -87 -25 -223 -16 -336 24
-49 17 -90 30 -91 29 -77 -125 -114 -189 -114 -196 0 -5 24 -23 54 -40 67 -37
116 -85 142 -137 18 -37 19 -66 20 -594 l1 -555 264 4 c153 2 267 7 270 13 3
5 12 90 19 189 7 102 16 177 21 172 5 -5 16 -78 25 -163 8 -85 19 -168 23
-185 l7 -30 307 -3 307 -2 0 29 c0 65 -33 207 -93 401 -60 191 -80 274 -90
377 -5 43 2 58 57 127 20 26 35 65 52 138 14 56 36 121 49 144 19 33 73 85
113 110 2 1 -99 182 -114 202 -1 2 -24 -8 -51 -22 -106 -53 -244 -70 -349 -42
-61 16 -143 56 -204 100 -25 18 -50 35 -56 39 -6 3 -21 -5 -35 -18z"/>
<path d="M2340 1161 c-118 -36 -198 -153 -188 -275 19 -227 301 -323 453 -154
50 54 67 101 67 175 1 114 -67 210 -175 250 -36 13 -119 15 -157 4z"/>
<path d="M355 1136 c-56 -25 -110 -81 -133 -135 -23 -57 -19 -159 9 -215 101
-204 400 -190 479 21 25 68 25 118 -1 187 -24 65 -100 140 -157 156 -64 17
-142 12 -197 -14z"/>
<path d="M232 568 c-23 -112 -82 -269 -157 -421 l-74 -147 429 0 429 0 -69
143 c-83 172 -129 306 -137 397 -3 38 -9 73 -12 78 -4 6 -33 1 -76 -14 -87
-29 -149 -30 -223 -3 -101 37 -96 39 -110 -33z"/>
<path d="M2200 316 l0 -306 145 0 144 0 3 117 3 117 89 -122 90 -122 163 0
c163 0 164 0 152 21 -15 30 -359 572 -368 582 -4 4 -36 1 -72 -8 -107 -25
-241 -17 -331 20 -17 7 -18 -11 -18 -299z"/>
</g>
</svg>
